<svg width="39" height="39" viewBox="0 0 39 39" fill="none" xmlns="http://www.w3.org/2000/svg">
<path fill-rule="evenodd" clip-rule="evenodd" d="M0 4.58824V34.4118C0 37.1647 1.83529 39 4.58824 39H20.6471V23.8588H15.6V17.8941H20.6471V13.3059C20.6471 9.17647 23.8588 5.96471 27.9882 5.96471H32.1176C32.5765 5.96471 32.5765 5.96471 33.0353 5.96471V11.4706C31.2 11.4706 28.4471 11.0118 27.5294 11.9294C26.6118 12.8471 26.6118 16.0588 26.6118 17.8941H32.5765C32.5765 18.8118 32.5765 20.1882 32.1176 20.6471C32.1176 21.5647 32.1176 22.9412 32.1176 23.8588H26.6118V39H34.4118C37.1647 39 39 37.1647 39 34.4118V4.58824C39 1.83529 37.1647 0 34.4118 0H4.58824C1.83529 0 0 1.83529 0 4.58824Z" fill="white"/>
</svg>
