<svg width="22" height="15" viewBox="0 0 22 15" fill="none" xmlns="http://www.w3.org/2000/svg">
<path fill-rule="evenodd" clip-rule="evenodd" d="M9.11297 7.40854C9.29707 7.40854 9.75732 7.77439 9.94142 7.95732C11.4142 9.05488 12.1506 7.59146 12.795 7.40854L20.4351 13.811C20.5272 13.9024 20.8033 14.0854 20.8954 14.2683C20.8954 14.2683 20.8954 14.2683 20.8033 14.2683H1.1046C1.01255 14.2683 1.1046 14.3598 1.01255 14.2683L6.07531 9.96951C6.25941 9.78659 6.44351 9.69512 6.62761 9.5122C6.71967 9.42073 6.90377 9.23781 7.08787 9.14634L8.65272 7.86585C8.83682 7.68293 9.02092 7.5 9.11297 7.40854ZM13.2552 6.95122C13.4393 6.85976 14.0837 6.31098 14.2678 6.21951L20.251 1.7378C20.4351 1.64634 21.1715 1.09756 21.2636 1.0061C21.3556 2.28659 21.3556 6.03659 21.3556 7.31707C21.3556 9.5122 21.3556 11.6159 21.3556 13.7195C21.1715 13.628 20.9874 13.4451 20.8033 13.3537L19.3305 12.0732C19.1464 11.8902 18.9623 11.7988 18.8703 11.6159L13.2552 6.95122ZM0.552301 13.7195V1.82927C0.552301 1.46341 0.644351 1.28049 0.644351 1.0061C0.828452 1.09756 1.01255 1.28049 1.19665 1.37195L5.61506 4.66463C5.98326 4.93902 6.25941 5.21341 6.62761 5.4878C6.81172 5.57927 8.46862 6.85976 8.65272 6.95122L4.14226 10.7012C3.95816 10.8841 3.77406 11.0671 3.58996 11.1585L1.6569 12.8963C1.2887 13.1707 0.920502 13.4451 0.552301 13.7195ZM1.2887 0.640244H20.6192C20.5272 0.823171 14.8201 5.03049 14.636 5.12195L12.2427 6.95122C10.6778 8.04878 11.1381 8.04878 8.46862 6.03659L1.2887 0.640244ZM0 1.28049V13.811C0 14.3598 0.552301 15 1.38075 15H20.5272C21.3556 15 22 14.4512 22 13.7195V1.28049C22 0.548781 21.3556 0 20.6192 0H1.2887C0.644351 0 0 0.548781 0 1.28049Z" fill="white"/>
</svg>
