<svg width="30" height="31" viewBox="0 0 30 31" fill="none" xmlns="http://www.w3.org/2000/svg">
<path fill-rule="evenodd" clip-rule="evenodd" d="M20.6272 25.1157C20.727 25.1157 21.3261 25.9148 21.4259 26.1146L23.8222 29.1112H9.24492C9.44461 29.0113 17.4321 26.2145 17.7317 26.1146C18.2309 25.9148 18.7301 25.8149 19.1295 25.6152C19.429 25.5153 20.4275 25.1157 20.6272 25.1157ZM1.15754 29.1112L3.95318 21.7196C4.05302 21.5198 4.35255 20.8206 4.35255 20.6209C4.95162 20.6209 5.45084 20.6209 6.0499 20.6209C6.44928 20.6209 6.44928 20.7207 6.64897 20.9205L9.64429 24.916C9.94383 25.3155 11.4415 27.0136 11.4415 27.4131C11.2418 27.4131 7.54757 28.7116 6.9485 29.0113C6.44928 29.1112 6.44928 29.1112 5.65053 29.1112H1.15754ZM21.6256 24.7162L24.0219 23.8172C24.5211 23.7173 24.9205 23.5175 25.3198 23.4177L26.6178 22.9182L28.9142 29.1112H24.9205C24.8206 28.9114 24.7208 28.8115 24.5211 28.6117C24.4212 28.412 24.3214 28.2122 24.1217 28.1123L22.8237 26.4142C22.7239 26.2145 22.624 26.0147 22.4243 25.8149L21.6256 24.7162ZM7.54757 20.6209H11.4415C11.741 21.2202 12.6396 22.4188 13.039 23.118C13.5382 23.7173 13.9376 24.2167 14.4368 24.8161C15.1357 25.715 15.2356 25.3155 16.0343 24.3166L17.8315 21.9194C18.0312 21.5198 18.3307 21.1203 18.6303 20.6209H25.7192C25.7192 20.8206 25.9189 21.1203 25.9189 21.4199C26.0187 21.6197 26.2184 21.9194 26.2184 22.1191C25.9189 22.219 25.6194 22.3189 25.3198 22.4188L22.8237 23.3178C22.2247 23.5175 21.6256 23.7173 21.0265 23.9171L17.6318 25.2156C17.0328 25.4154 16.4337 25.5153 15.8346 25.8149L12.4399 27.0136L9.64429 23.4177C9.24492 22.9182 7.8471 21.1203 7.54757 20.6209ZM14.5367 0.943366C16.3339 0.943366 17.4321 1.14314 19.0296 2.14199C19.9282 2.74131 20.6272 3.44051 21.3261 4.53925C21.5258 4.9388 21.8253 5.53811 22.025 6.03754C22.3245 7.13628 22.2247 7.13628 22.3245 8.13514C22.4243 9.03411 22.025 11.1317 21.7254 12.1306C20.5273 15.7265 19.1295 18.2236 17.0328 21.4199L14.936 24.1169C14.936 23.9171 14.1373 23.0181 14.0374 22.8183L12.1404 20.0215C11.4415 19.1226 10.5429 17.3246 10.0437 16.3258C8.24648 12.8298 6.64897 8.03526 8.7457 4.53925C9.84398 2.64142 12.2402 0.943366 14.5367 0.943366ZM6.84866 7.93537C6.84866 10.8321 7.54757 13.529 8.84554 16.0261C9.44461 17.2247 10.0437 18.6231 10.8424 19.7219H4.35255C3.75349 19.7219 3.75349 19.7219 3.5538 20.2213C3.25427 20.8206 3.05458 21.4199 2.85489 22.1191C2.55536 22.7185 2.35567 23.3178 2.15598 23.9171C1.85645 24.6163 1.65676 25.2156 1.35723 25.8149C1.15754 26.5141 0.858007 27.1134 0.658319 27.7128C0.358786 28.6117 -0.539811 30.11 0.458631 30.11H29.5133C30.5117 30.11 29.713 28.7116 29.4134 27.7128C28.415 25.4154 27.5164 22.6186 26.518 20.2213C26.2184 19.5221 26.1186 19.7219 24.4212 19.7219C22.7239 19.7219 20.9267 19.7219 19.2293 19.7219C19.7286 19.0227 20.1279 18.1237 20.5273 17.3246C22.1248 14.5278 23.2231 11.2316 23.2231 7.93537C23.2231 6.43708 22.624 4.63914 21.7254 3.5404C21.1264 2.74131 20.5273 2.14199 19.7286 1.54268L18.5304 0.743594C14.936 -0.754692 11.3416 0.0443937 8.7457 2.8412C8.34632 3.34062 7.8471 4.2396 7.54757 4.73902C7.14819 5.53811 6.84866 6.73674 6.84866 7.93537Z" fill="#2B2A29"/>
<path fill-rule="evenodd" clip-rule="evenodd" d="M12.1403 8.23484C12.1403 6.23712 14.3369 4.83872 16.1341 5.63781C18.9297 6.93632 18.0311 11.0316 15.0358 11.0316C13.4383 11.0316 12.1403 9.73312 12.1403 8.23484ZM11.2417 7.93518C11.2417 9.13381 11.5412 10.1327 12.4398 10.9318C15.3353 13.4289 18.73 11.0316 18.73 8.53449V7.93518C18.73 6.23712 17.0327 4.53906 15.2355 4.53906C14.0373 4.53906 13.2386 4.73883 12.34 5.63781C11.8408 6.13723 11.2417 6.93632 11.2417 7.93518Z" fill="#2B2A29"/>
</svg>
