<svg width="23" height="23" viewBox="0 0 23 23" fill="none" xmlns="http://www.w3.org/2000/svg">
<path fill-rule="evenodd" clip-rule="evenodd" d="M4.03318 0.763348C4.46919 0.763348 4.46919 0.872397 4.79621 1.3086C4.90521 1.5267 5.12322 1.74479 5.23223 1.96289L7.41232 5.23438C7.73934 5.67058 7.95735 5.99773 7.52133 6.43393L6.43128 7.30633C5.99526 7.63348 5.55924 7.85158 5.45024 8.28777C5.12322 9.05112 5.45024 9.59637 5.99526 10.3597C6.32227 11.014 6.43128 11.1231 6.8673 11.6683C7.52133 12.6498 8.61137 13.7403 9.48341 14.5036L10.5735 15.5941C10.7915 15.7032 10.7915 15.7032 10.9005 15.8122L11.8815 16.5755C12.0995 16.6846 12.3175 16.7936 12.5355 17.0117L13.6256 17.557C14.0616 17.7751 14.6066 17.666 14.9336 17.3389L15.5877 16.4665C15.8057 16.2484 16.0237 16.0303 16.2417 15.7032C16.8957 14.8308 16.8957 15.0489 18.3128 15.9213C18.8578 16.2484 19.2938 16.5755 19.6209 16.9027C19.8389 17.0117 20.0569 17.1208 20.2749 17.2298C20.6019 17.4479 20.7109 17.557 21.0379 17.7751C22.564 18.7565 22.455 18.4294 21.0379 20.8285C20.6019 21.5918 20.1659 21.919 19.1848 22.028C16.4597 22.4642 13.4076 21.0466 11.2275 19.4108L8.28436 17.0117C8.17535 16.9027 8.06635 16.6846 7.84834 16.5755C7.19431 16.0303 4.79621 13.3041 4.14218 12.6498C3.92417 12.3226 3.70616 11.9955 3.48815 11.7774C3.05213 11.014 2.18009 9.59637 1.74408 8.83302C1.09005 7.19728 0.545024 5.67058 0.872038 3.81674C0.872038 3.38054 0.981043 2.94434 1.19905 2.61719C1.52607 2.07194 2.3981 1.74479 3.05213 1.3086C3.16114 1.19955 3.81517 0.763348 4.03318 0.763348ZM4.14218 0H4.25118C4.5782 0 4.79621 0.10905 5.12322 0.436199C5.34123 0.654298 7.73934 4.36199 8.17535 5.01628C9.04739 6.21583 8.39336 6.87013 7.41232 7.52443C7.19431 7.74253 6.8673 7.96063 6.64929 8.17872C6.43128 8.28777 6.10427 8.50587 6.10427 8.83302C6.10427 9.26922 7.30332 11.014 7.63033 11.3412C8.39336 12.3226 9.1564 13.086 10.0284 13.9584C10.1374 14.0674 10.1374 14.1765 10.2464 14.1765C10.3554 14.2855 10.3554 14.2855 10.5735 14.3946C11.1185 14.9398 12.0995 15.8122 12.7536 16.1394C14.0616 16.9027 14.1706 17.1208 14.8246 16.2484C14.9336 16.0303 15.1517 15.8122 15.3697 15.4851L15.9147 14.8308C16.1327 14.6127 16.4597 14.3946 16.7867 14.3946C17.4408 14.3946 17.4408 14.3946 17.9858 14.8308L20.2749 16.2484C20.8199 16.6846 21.2559 17.0117 21.8009 17.3389C22.019 17.4479 22.346 17.666 22.564 17.8841C22.782 18.1022 22.891 18.3203 23 18.6475V18.8656C22.891 19.0837 22.782 19.4108 22.673 19.6289L21.4739 21.7009C20.6019 22.7914 19.2938 22.9004 17.8768 22.9004C15.0427 22.9004 11.6635 20.8285 9.48341 19.0837C9.2654 18.8656 9.04739 18.7565 8.82938 18.5384C8.72038 18.4294 8.61137 18.3203 8.50237 18.3203C8.39336 18.2113 8.39336 18.1022 8.28436 17.9932L7.30332 17.2298C6.64929 16.5755 5.12322 14.9398 4.36019 14.0674C3.16114 12.6498 1.52607 10.3597 0.872038 8.61492C0.218009 7.19728 0 6.21583 0 4.47104C0 3.81674 0.109005 3.05339 0.327014 2.61719C0.654028 1.74479 1.30806 1.41765 1.96209 1.0905C2.72512 0.545248 3.37915 0 4.14218 0Z" fill="black"/>
<path fill-rule="evenodd" clip-rule="evenodd" d="M19.8388 10.6867C20.3838 10.6867 20.2748 10.3595 20.2748 9.92335C20.2748 9.3781 20.1658 8.83285 20.0568 8.39666C19.8388 7.52426 19.0758 6.10661 18.5308 5.56136C18.4218 5.45232 18.3128 5.45232 18.3128 5.34327C17.8768 4.68897 16.5687 3.92562 15.9147 3.59847C15.1517 3.27132 14.0617 3.05322 12.9717 3.05322C12.5357 3.05322 12.3177 3.81657 13.2987 3.81657C13.9527 3.81657 15.0427 4.03467 15.5877 4.36182L16.4597 4.79802C16.6777 4.90707 16.6777 5.01612 16.7867 5.01612C17.2228 5.45232 17.6588 5.77946 17.9858 6.21566C18.4218 6.65186 18.6398 7.19711 18.9668 7.74236C19.7298 9.26905 19.2938 10.6867 19.8388 10.6867Z" fill="black"/>
<path fill-rule="evenodd" clip-rule="evenodd" d="M17.5497 10.687C17.9857 10.687 17.9857 10.4689 17.9857 10.1418C17.9857 8.6151 17.2227 7.5246 16.3507 6.6522C15.3697 5.67076 13.0806 5.01646 12.6446 5.45266C12.4266 5.77981 12.6446 6.10695 13.0806 6.10695C13.5166 6.10695 13.8436 6.216 14.1706 6.32505C15.8057 6.76125 17.0047 8.1789 17.1137 9.81464C17.2227 10.0327 17.1137 10.687 17.5497 10.687Z" fill="black"/>
<path fill-rule="evenodd" clip-rule="evenodd" d="M15.2608 10.6867C16.1328 10.6867 15.5878 8.94189 14.7158 8.2876C14.4978 8.0695 14.1708 7.8514 13.8438 7.74235C13.6258 7.6333 13.5168 7.6333 13.1898 7.6333C12.5357 7.6333 12.5357 8.0695 12.6447 8.2876C12.8627 8.61475 14.2798 8.17855 14.8248 9.70524C14.9338 10.1414 14.8248 10.6867 15.2608 10.6867Z" fill="black"/>
</svg>
