<svg width="176" height="66" viewBox="0 0 176 66" fill="none" xmlns="http://www.w3.org/2000/svg">
<path d="M64.8788 0.478394H50.0156V15.3477H64.8788V0.478394Z" fill="#00FF83"/>
<path d="M64.8788 17.1179H50.0156V31.9872H64.8788V17.1179Z" fill="#00EA79"/>
<path d="M64.8788 33.6393H50.0156V48.5086H64.8788V33.6393Z" fill="#00B765"/>
<path d="M64.8788 50.2787H50.0156V65.148H64.8788V50.2787Z" fill="#00A05A"/>
<path d="M48.1283 17.1179H33.2651V31.9872H48.1283V17.1179Z" fill="#00EA79"/>
<path d="M48.1283 33.6393H33.2651V48.5086H48.1283V33.6393Z" fill="#00B765"/>
<path d="M48.1283 50.2787H33.2651V65.148H48.1283V50.2787Z" fill="#00A05A"/>
<path d="M31.4957 33.6393H16.6326V48.5086H31.4957V33.6393Z" fill="#00B765"/>
<path d="M31.4957 50.2787H16.6326V65.148H31.4957V50.2787Z" fill="#00A05A"/>
<path d="M14.8631 50.2787H0V65.148H14.8631V50.2787Z" fill="#00A05A"/>
<path d="M73.8374 25.4102H80.5933V34H79.4507V26.4238H74.9741V34H73.8374V25.4102ZM81.5073 34L84.8062 25.4102H86.0308L89.5464 34H88.2515L87.2495 31.3984H83.6577L82.7144 34H81.5073ZM83.9858 30.4727H86.8979L86.0015 28.0938C85.728 27.3711 85.5249 26.7773 85.3921 26.3125C85.2827 26.8633 85.1284 27.4102 84.9292 27.9531L83.9858 30.4727ZM91.3511 25.4102H96.73V34H95.5933V26.4238H92.4878V30.8477C92.4878 31.7461 92.4448 32.4043 92.3589 32.8223C92.2769 33.2402 92.1011 33.5664 91.8315 33.8008C91.562 34.0312 91.2202 34.1465 90.8062 34.1465C90.5562 34.1465 90.2554 34.0996 89.9038 34.0059L90.0972 32.998C90.2847 33.0762 90.4448 33.1152 90.5776 33.1152C90.8354 33.1152 91.0288 33.0195 91.1577 32.8281C91.2866 32.6328 91.3511 32.1758 91.3511 31.457V25.4102ZM97.6558 34L100.955 25.4102H102.179L105.695 34H104.4L103.398 31.3984H99.8062L98.8628 34H97.6558ZM100.134 30.4727H103.046L102.15 28.0938C101.876 27.3711 101.673 26.7773 101.541 26.3125C101.431 26.8633 101.277 27.4102 101.078 27.9531L100.134 30.4727ZM107.851 34V26.4238H105.021V25.4102H111.83V26.4238H108.988V34H107.851ZM111.66 34L114.958 25.4102H116.183L119.699 34H118.404L117.402 31.3984H113.81L112.867 34H111.66ZM114.138 30.4727H117.05L116.154 28.0938C115.88 27.3711 115.677 26.7773 115.544 26.3125C115.435 26.8633 115.281 27.4102 115.082 27.9531L114.138 30.4727ZM73.8608 48V39.4102H74.9976V42.9375H79.4624V39.4102H80.5991V48H79.4624V43.9512H74.9976V48H73.8608ZM81.5542 48L84.853 39.4102H86.0776L89.5933 48H88.2983L87.2964 45.3984H83.7046L82.7612 48H81.5542ZM84.0327 44.4727H86.9448L86.0483 42.0938C85.7749 41.3711 85.5718 40.7773 85.439 40.3125C85.3296 40.8633 85.1753 41.4102 84.9761 41.9531L84.0327 44.4727ZM91.3979 39.4102H96.7769V48H95.6401V40.4238H92.5347V44.8477C92.5347 45.7461 92.4917 46.4043 92.4058 46.8223C92.3237 47.2402 92.1479 47.5664 91.8784 47.8008C91.6089 48.0312 91.2671 48.1465 90.853 48.1465C90.603 48.1465 90.3022 48.0996 89.9507 48.0059L90.144 46.998C90.3315 47.0762 90.4917 47.1152 90.6245 47.1152C90.8823 47.1152 91.0757 47.0195 91.2046 46.8281C91.3335 46.6328 91.3979 46.1758 91.3979 45.457V39.4102ZM98.3003 43.8164C98.3003 42.3906 98.6831 41.2754 99.4487 40.4707C100.214 39.6621 101.203 39.2578 102.414 39.2578C103.207 39.2578 103.921 39.4473 104.558 39.8262C105.195 40.2051 105.679 40.7344 106.011 41.4141C106.347 42.0898 106.515 42.8574 106.515 43.7168C106.515 44.5879 106.339 45.3672 105.988 46.0547C105.636 46.7422 105.138 47.2637 104.494 47.6191C103.849 47.9707 103.154 48.1465 102.408 48.1465C101.599 48.1465 100.876 47.9512 100.24 47.5605C99.603 47.1699 99.1206 46.6367 98.7925 45.9609C98.4644 45.2852 98.3003 44.5703 98.3003 43.8164ZM99.4722 43.834C99.4722 44.8691 99.7495 45.6855 100.304 46.2832C100.863 46.877 101.562 47.1738 102.402 47.1738C103.257 47.1738 103.96 46.873 104.511 46.2715C105.066 45.6699 105.343 44.8164 105.343 43.7109C105.343 43.0117 105.224 42.4023 104.986 41.8828C104.751 41.3594 104.406 40.9551 103.949 40.6699C103.496 40.3809 102.986 40.2363 102.419 40.2363C101.615 40.2363 100.921 40.5137 100.339 41.0684C99.7612 41.6191 99.4722 42.541 99.4722 43.834ZM108.003 39.4102H113.558V40.4238H109.14V48H108.003V39.4102ZM113.464 43.8164C113.464 42.3906 113.847 41.2754 114.613 40.4707C115.378 39.6621 116.367 39.2578 117.578 39.2578C118.371 39.2578 119.085 39.4473 119.722 39.8262C120.359 40.2051 120.843 40.7344 121.175 41.4141C121.511 42.0898 121.679 42.8574 121.679 43.7168C121.679 44.5879 121.503 45.3672 121.152 46.0547C120.8 46.7422 120.302 47.2637 119.658 47.6191C119.013 47.9707 118.318 48.1465 117.572 48.1465C116.763 48.1465 116.041 47.9512 115.404 47.5605C114.767 47.1699 114.285 46.6367 113.957 45.9609C113.628 45.2852 113.464 44.5703 113.464 43.8164ZM114.636 43.834C114.636 44.8691 114.914 45.6855 115.468 46.2832C116.027 46.877 116.726 47.1738 117.566 47.1738C118.421 47.1738 119.125 46.873 119.675 46.2715C120.23 45.6699 120.507 44.8164 120.507 43.7109C120.507 43.0117 120.388 42.4023 120.15 41.8828C119.916 41.3594 119.57 40.9551 119.113 40.6699C118.66 40.3809 118.15 40.2363 117.583 40.2363C116.779 40.2363 116.085 40.5137 115.503 41.0684C114.925 41.6191 114.636 42.541 114.636 43.834ZM123.103 48V39.4102H126.326C126.982 39.4102 127.507 39.498 127.902 39.6738C128.3 39.8457 128.611 40.1133 128.833 40.4766C129.06 40.8359 129.173 41.2129 129.173 41.6074C129.173 41.9746 129.074 42.3203 128.875 42.6445C128.675 42.9688 128.375 43.2305 127.972 43.4297C128.492 43.582 128.89 43.8418 129.167 44.209C129.449 44.5762 129.589 45.0098 129.589 45.5098C129.589 45.9121 129.503 46.2871 129.332 46.6348C129.164 46.9785 128.955 47.2441 128.705 47.4316C128.455 47.6191 128.14 47.7617 127.761 47.8594C127.386 47.9531 126.925 48 126.378 48H123.103ZM124.24 43.0195H126.097C126.601 43.0195 126.962 42.9863 127.181 42.9199C127.47 42.834 127.687 42.6914 127.832 42.4922C127.98 42.293 128.054 42.043 128.054 41.7422C128.054 41.457 127.986 41.207 127.849 40.9922C127.712 40.7734 127.517 40.625 127.263 40.5469C127.009 40.4648 126.574 40.4238 125.957 40.4238H124.24V43.0195ZM124.24 46.9863H126.378C126.746 46.9863 127.003 46.9727 127.152 46.9453C127.414 46.8984 127.632 46.8203 127.808 46.7109C127.984 46.6016 128.128 46.4434 128.242 46.2363C128.355 46.0254 128.412 45.7832 128.412 45.5098C128.412 45.1895 128.33 44.9121 128.166 44.6777C128.001 44.4395 127.773 44.2734 127.48 44.1797C127.191 44.082 126.773 44.0332 126.226 44.0332H124.24V46.9863ZM131.212 39.4102H132.349V43.0781H134.4C135.744 43.0781 136.626 43.3262 137.048 43.8223C137.474 44.3184 137.687 44.8809 137.687 45.5098C137.687 46.1738 137.46 46.7559 137.007 47.2559C136.554 47.752 135.712 48 134.482 48H131.212V39.4102ZM132.349 47.0332H134.429C135.144 47.0332 135.662 46.9141 135.982 46.6758C136.306 46.4336 136.468 46.0488 136.468 45.5215C136.468 45.1621 136.371 44.8613 136.175 44.6191C135.98 44.377 135.728 44.2227 135.419 44.1562C135.111 44.0898 134.595 44.0566 133.873 44.0566H132.349V47.0332ZM138.718 39.4102H139.855V48H138.718V39.4102ZM140.91 48L144.232 43.5234L141.302 39.4102H142.656L144.214 41.6133C144.539 42.0703 144.769 42.4219 144.906 42.668C145.097 42.3555 145.324 42.0293 145.585 41.6895L147.314 39.4102H148.55L145.533 43.459L148.785 48H147.378L145.216 44.9355C145.095 44.7598 144.97 44.5684 144.841 44.3613C144.65 44.6738 144.513 44.8887 144.431 45.0059L142.275 48H140.91ZM73.8433 53.4102H74.98V57.1719C75.4995 57.1719 75.8647 57.0723 76.0757 56.873C76.2866 56.6699 76.5562 56.1855 76.8843 55.4199C77.1226 54.8574 77.3179 54.4609 77.4702 54.2305C77.6265 53.9961 77.8472 53.8008 78.1323 53.6445C78.4175 53.4844 78.7319 53.4043 79.0757 53.4043C79.5132 53.4043 79.7437 53.4082 79.7671 53.416V54.4004C79.728 54.4004 79.6519 54.3984 79.5386 54.3945C79.4136 54.3906 79.3374 54.3887 79.3101 54.3887C78.9468 54.3887 78.6772 54.4766 78.5015 54.6523C78.3218 54.8281 78.1167 55.2031 77.8862 55.7773C77.5972 56.5039 77.353 56.9629 77.1538 57.1543C76.9546 57.3418 76.7163 57.4922 76.439 57.6055C76.9937 57.7578 77.5405 58.2695 78.0796 59.1406L79.8491 62H78.437L77.0015 59.668C76.6069 59.0234 76.2769 58.582 76.0112 58.3438C75.7456 58.1016 75.4019 57.9805 74.98 57.9805V62H73.8433V53.4102ZM80.3354 57.8164C80.3354 56.3906 80.7183 55.2754 81.4839 54.4707C82.2495 53.6621 83.2378 53.2578 84.4487 53.2578C85.2417 53.2578 85.9565 53.4473 86.5933 53.8262C87.23 54.2051 87.7144 54.7344 88.0464 55.4141C88.3823 56.0898 88.5503 56.8574 88.5503 57.7168C88.5503 58.5879 88.3745 59.3672 88.0229 60.0547C87.6714 60.7422 87.1733 61.2637 86.5288 61.6191C85.8843 61.9707 85.189 62.1465 84.4429 62.1465C83.6343 62.1465 82.9116 61.9512 82.2749 61.5605C81.6382 61.1699 81.1558 60.6367 80.8276 59.9609C80.4995 59.2852 80.3354 58.5703 80.3354 57.8164ZM81.5073 57.834C81.5073 58.8691 81.7847 59.6855 82.3394 60.2832C82.8979 60.877 83.5972 61.1738 84.437 61.1738C85.2925 61.1738 85.9956 60.873 86.5464 60.2715C87.1011 59.6699 87.3784 58.8164 87.3784 57.7109C87.3784 57.0117 87.2593 56.4023 87.021 55.8828C86.7866 55.3594 86.4409 54.9551 85.9839 54.6699C85.5308 54.3809 85.021 54.2363 84.4546 54.2363C83.6499 54.2363 82.9565 54.5137 82.3745 55.0684C81.7964 55.6191 81.5073 56.541 81.5073 57.834ZM90.0562 62V53.4102H91.1929V56.9375H95.6577V53.4102H96.7944V62H95.6577V57.9512H91.1929V62H90.0562ZM104.822 58.9883L105.958 59.2754C105.72 60.209 105.291 60.9219 104.669 61.4141C104.052 61.9023 103.296 62.1465 102.402 62.1465C101.476 62.1465 100.722 61.959 100.14 61.584C99.562 61.2051 99.1206 60.6582 98.8159 59.9434C98.5151 59.2285 98.3647 58.4609 98.3647 57.6406C98.3647 56.7461 98.5347 55.9668 98.8745 55.3027C99.2183 54.6348 99.7046 54.1289 100.333 53.7852C100.966 53.4375 101.662 53.2637 102.419 53.2637C103.279 53.2637 104.001 53.4824 104.587 53.9199C105.173 54.3574 105.582 54.9727 105.812 55.7656L104.693 56.0293C104.494 55.4043 104.205 54.9492 103.826 54.6641C103.447 54.3789 102.97 54.2363 102.396 54.2363C101.736 54.2363 101.183 54.3945 100.738 54.7109C100.296 55.0273 99.9858 55.4531 99.8062 55.9883C99.6265 56.5195 99.5366 57.0684 99.5366 57.6348C99.5366 58.3652 99.6421 59.0039 99.853 59.5508C100.068 60.0938 100.4 60.5 100.849 60.7695C101.298 61.0391 101.785 61.1738 102.308 61.1738C102.945 61.1738 103.484 60.9902 103.925 60.623C104.367 60.2559 104.666 59.7109 104.822 58.9883ZM106.099 53.4102H107.248L110.048 58.6719L112.498 53.4102H113.628L110.406 60.0898C110.003 60.9258 109.673 61.4727 109.416 61.7305C109.158 61.9883 108.789 62.1172 108.308 62.1172C108.015 62.1172 107.656 62.0488 107.23 61.9121V60.9395C107.535 61.1152 107.857 61.2031 108.197 61.2031C108.474 61.2031 108.712 61.1152 108.912 60.9395C109.115 60.7598 109.337 60.3535 109.58 59.7207L106.099 53.4102ZM114.824 53.4102H120.203V62H119.066V54.4238H115.96V58.8477C115.96 59.7461 115.917 60.4043 115.832 60.8223C115.75 61.2402 115.574 61.5664 115.304 61.8008C115.035 62.0312 114.693 62.1465 114.279 62.1465C114.029 62.1465 113.728 62.0996 113.376 62.0059L113.57 60.998C113.757 61.0762 113.917 61.1152 114.05 61.1152C114.308 61.1152 114.501 61.0195 114.63 60.8281C114.759 60.6328 114.824 60.1758 114.824 59.457V53.4102ZM122.113 53.4102H123.25V57.0781H125.3C126.257 57.0781 126.951 57.1895 127.38 57.4121C127.81 57.6348 128.119 57.9375 128.306 58.3203C128.494 58.7031 128.587 59.0977 128.587 59.5039C128.587 60.168 128.361 60.75 127.908 61.25C127.455 61.75 126.611 62 125.376 62H122.113V53.4102ZM123.25 61.0332H125.33C126.173 61.0332 126.722 60.8848 126.976 60.5879C127.234 60.2871 127.363 59.9258 127.363 59.5039C127.363 59.1602 127.269 58.8691 127.082 58.6309C126.898 58.3887 126.652 58.2324 126.343 58.1621C126.035 58.0918 125.511 58.0566 124.773 58.0566H123.25V61.0332ZM130.925 62V54.4238H128.095V53.4102H134.904V54.4238H132.062V62H130.925ZM134.734 62L138.033 53.4102H139.257L142.773 62H141.478L140.476 59.3984H136.884L135.941 62H134.734ZM137.212 58.4727H140.125L139.228 56.0938C138.955 55.3711 138.751 54.7773 138.619 54.3125C138.509 54.8633 138.355 55.4102 138.156 55.9531L137.212 58.4727ZM143.716 62V53.4102H144.853V56.9375H149.318V53.4102H150.455V62H149.318V57.9512H144.853V62H143.716ZM154.539 62V54.4238H151.708V53.4102H158.517V54.4238H155.675V62H154.539ZM158.804 57.8164C158.804 56.3906 159.187 55.2754 159.953 54.4707C160.718 53.6621 161.707 53.2578 162.917 53.2578C163.71 53.2578 164.425 53.4473 165.062 53.8262C165.699 54.2051 166.183 54.7344 166.515 55.4141C166.851 56.0898 167.019 56.8574 167.019 57.7168C167.019 58.5879 166.843 59.3672 166.492 60.0547C166.14 60.7422 165.642 61.2637 164.998 61.6191C164.353 61.9707 163.658 62.1465 162.912 62.1465C162.103 62.1465 161.38 61.9512 160.744 61.5605C160.107 61.1699 159.625 60.6367 159.296 59.9609C158.968 59.2852 158.804 58.5703 158.804 57.8164ZM159.976 57.834C159.976 58.8691 160.253 59.6855 160.808 60.2832C161.367 60.877 162.066 61.1738 162.906 61.1738C163.761 61.1738 164.464 60.873 165.015 60.2715C165.57 59.6699 165.847 58.8164 165.847 57.7109C165.847 57.0117 165.728 56.4023 165.49 55.8828C165.255 55.3594 164.91 54.9551 164.453 54.6699C164 54.3809 163.49 54.2363 162.923 54.2363C162.119 54.2363 161.425 54.5137 160.843 55.0684C160.265 55.6191 159.976 56.541 159.976 57.834ZM168.443 62V53.4102H171.666C172.322 53.4102 172.847 53.498 173.242 53.6738C173.64 53.8457 173.951 54.1133 174.173 54.4766C174.4 54.8359 174.513 55.2129 174.513 55.6074C174.513 55.9746 174.414 56.3203 174.214 56.6445C174.015 56.9688 173.714 57.2305 173.312 57.4297C173.832 57.582 174.23 57.8418 174.507 58.209C174.789 58.5762 174.929 59.0098 174.929 59.5098C174.929 59.9121 174.843 60.2871 174.671 60.6348C174.503 60.9785 174.294 61.2441 174.044 61.4316C173.794 61.6191 173.48 61.7617 173.101 61.8594C172.726 61.9531 172.265 62 171.718 62H168.443ZM169.58 57.0195H171.437C171.941 57.0195 172.302 56.9863 172.521 56.9199C172.81 56.834 173.027 56.6914 173.171 56.4922C173.32 56.293 173.394 56.043 173.394 55.7422C173.394 55.457 173.326 55.207 173.189 54.9922C173.052 54.7734 172.857 54.625 172.603 54.5469C172.349 54.4648 171.914 54.4238 171.296 54.4238H169.58V57.0195ZM169.58 60.9863H171.718C172.085 60.9863 172.343 60.9727 172.492 60.9453C172.753 60.8984 172.972 60.8203 173.148 60.7109C173.324 60.6016 173.468 60.4434 173.582 60.2363C173.695 60.0254 173.751 59.7832 173.751 59.5098C173.751 59.1895 173.669 58.9121 173.505 58.6777C173.341 58.4395 173.113 58.2734 172.82 58.1797C172.531 58.082 172.113 58.0332 171.566 58.0332H169.58V60.9863Z" fill="#545250"/>
</svg>
