<svg width="176" height="65" viewBox="0 0 176 65" fill="none" xmlns="http://www.w3.org/2000/svg">
<path d="M64.8786 0H50.0155V14.8693H64.8786V0Z" fill="white"/>
<path d="M64.8786 16.6396H50.0155V31.5089H64.8786V16.6396Z" fill="white"/>
<path d="M64.8786 33.1611H50.0155V48.0304H64.8786V33.1611Z" fill="white"/>
<path d="M64.8786 49.8003H50.0155V64.6696H64.8786V49.8003Z" fill="white"/>
<path d="M48.1283 16.6396H33.2651V31.5089H48.1283V16.6396Z" fill="white"/>
<path d="M48.1283 33.1611H33.2651V48.0304H48.1283V33.1611Z" fill="white"/>
<path d="M48.1283 49.8003H33.2651V64.6696H48.1283V49.8003Z" fill="white"/>
<path d="M31.4957 33.1611H16.6326V48.0304H31.4957V33.1611Z" fill="white"/>
<path d="M31.4957 49.8003H16.6326V64.6696H31.4957V49.8003Z" fill="white"/>
<path d="M14.8631 49.8003H0V64.6696H14.8631V49.8003Z" fill="white"/>
<path d="M73.8375 24.9316H80.5934V33.5215H79.4508V25.9453H74.9742V33.5215H73.8375V24.9316ZM81.5074 33.5215L84.8063 24.9316H86.0309L89.5465 33.5215H88.2516L87.2496 30.9199H83.6578L82.7145 33.5215H81.5074ZM83.986 29.9941H86.8981L86.0016 27.6152C85.7281 26.8926 85.525 26.2988 85.3922 25.834C85.2828 26.3848 85.1285 26.9316 84.9293 27.4746L83.986 29.9941ZM91.3512 24.9316H96.7301V33.5215H95.5934V25.9453H92.4879V30.3691C92.4879 31.2676 92.4449 31.9258 92.359 32.3438C92.277 32.7617 92.1012 33.0879 91.8317 33.3223C91.5621 33.5527 91.2203 33.668 90.8063 33.668C90.5563 33.668 90.2555 33.6211 89.9039 33.5273L90.0973 32.5195C90.2848 32.5977 90.4449 32.6367 90.5778 32.6367C90.8356 32.6367 91.0289 32.541 91.1578 32.3496C91.2867 32.1543 91.3512 31.6973 91.3512 30.9785V24.9316ZM97.6559 33.5215L100.955 24.9316H102.179L105.695 33.5215H104.4L103.398 30.9199H99.8063L98.8629 33.5215H97.6559ZM100.134 29.9941H103.047L102.15 27.6152C101.877 26.8926 101.673 26.2988 101.541 25.834C101.431 26.3848 101.277 26.9316 101.078 27.4746L100.134 29.9941ZM107.851 33.5215V25.9453H105.021V24.9316H111.83V25.9453H108.988V33.5215H107.851ZM111.66 33.5215L114.959 24.9316H116.183L119.699 33.5215H118.404L117.402 30.9199H113.81L112.867 33.5215H111.66ZM114.138 29.9941H117.05L116.154 27.6152C115.88 26.8926 115.677 26.2988 115.545 25.834C115.435 26.3848 115.281 26.9316 115.082 27.4746L114.138 29.9941ZM73.861 47.5215V38.9316H74.9977V42.459H79.4625V38.9316H80.5992V47.5215H79.4625V43.4727H74.9977V47.5215H73.861ZM81.5543 47.5215L84.8531 38.9316H86.0778L89.5934 47.5215H88.2985L87.2965 44.9199H83.7047L82.7614 47.5215H81.5543ZM84.0328 43.9941H86.9449L86.0485 41.6152C85.775 40.8926 85.5719 40.2988 85.4391 39.834C85.3297 40.3848 85.1754 40.9316 84.9762 41.4746L84.0328 43.9941ZM91.3981 38.9316H96.777V47.5215H95.6403V39.9453H92.5348V44.3691C92.5348 45.2676 92.4918 45.9258 92.4059 46.3438C92.3239 46.7617 92.1481 47.0879 91.8785 47.3223C91.609 47.5527 91.2672 47.668 90.8531 47.668C90.6031 47.668 90.3024 47.6211 89.9508 47.5273L90.1442 46.5195C90.3317 46.5977 90.4918 46.6367 90.6246 46.6367C90.8824 46.6367 91.0758 46.541 91.2047 46.3496C91.3336 46.1543 91.3981 45.6973 91.3981 44.9785V38.9316ZM98.3004 43.3379C98.3004 41.9121 98.6832 40.7969 99.4489 39.9922C100.214 39.1836 101.203 38.7793 102.414 38.7793C103.207 38.7793 103.922 38.9688 104.558 39.3477C105.195 39.7266 105.679 40.2559 106.011 40.9355C106.347 41.6113 106.515 42.3789 106.515 43.2383C106.515 44.1094 106.339 44.8887 105.988 45.5762C105.636 46.2637 105.138 46.7852 104.494 47.1406C103.849 47.4922 103.154 47.668 102.408 47.668C101.599 47.668 100.877 47.4727 100.24 47.082C99.6031 46.6914 99.1207 46.1582 98.7926 45.4824C98.4645 44.8066 98.3004 44.0918 98.3004 43.3379ZM99.4723 43.3555C99.4723 44.3906 99.7496 45.207 100.304 45.8047C100.863 46.3984 101.562 46.6953 102.402 46.6953C103.257 46.6953 103.961 46.3945 104.511 45.793C105.066 45.1914 105.343 44.3379 105.343 43.2324C105.343 42.5332 105.224 41.9238 104.986 41.4043C104.752 40.8809 104.406 40.4766 103.949 40.1914C103.496 39.9023 102.986 39.7578 102.42 39.7578C101.615 39.7578 100.922 40.0352 100.339 40.5898C99.7614 41.1406 99.4723 42.0625 99.4723 43.3555ZM108.004 38.9316H113.558V39.9453H109.14V47.5215H108.004V38.9316ZM113.464 43.3379C113.464 41.9121 113.847 40.7969 114.613 39.9922C115.379 39.1836 116.367 38.7793 117.578 38.7793C118.371 38.7793 119.086 38.9688 119.722 39.3477C120.359 39.7266 120.843 40.2559 121.175 40.9355C121.511 41.6113 121.679 42.3789 121.679 43.2383C121.679 44.1094 121.504 44.8887 121.152 45.5762C120.8 46.2637 120.302 46.7852 119.658 47.1406C119.013 47.4922 118.318 47.668 117.572 47.668C116.763 47.668 116.041 47.4727 115.404 47.082C114.767 46.6914 114.285 46.1582 113.957 45.4824C113.629 44.8066 113.464 44.0918 113.464 43.3379ZM114.636 43.3555C114.636 44.3906 114.914 45.207 115.468 45.8047C116.027 46.3984 116.726 46.6953 117.566 46.6953C118.422 46.6953 119.125 46.3945 119.675 45.793C120.23 45.1914 120.507 44.3379 120.507 43.2324C120.507 42.5332 120.388 41.9238 120.15 41.4043C119.916 40.8809 119.57 40.4766 119.113 40.1914C118.66 39.9023 118.15 39.7578 117.584 39.7578C116.779 39.7578 116.086 40.0352 115.504 40.5898C114.925 41.1406 114.636 42.0625 114.636 43.3555ZM123.103 47.5215V38.9316H126.326C126.982 38.9316 127.507 39.0195 127.902 39.1953C128.3 39.3672 128.611 39.6348 128.834 39.998C129.06 40.3574 129.173 40.7344 129.173 41.1289C129.173 41.4961 129.074 41.8418 128.875 42.166C128.675 42.4902 128.375 42.752 127.972 42.9512C128.492 43.1035 128.89 43.3633 129.168 43.7305C129.449 44.0977 129.589 44.5312 129.589 45.0312C129.589 45.4336 129.504 45.8086 129.332 46.1562C129.164 46.5 128.955 46.7656 128.705 46.9531C128.455 47.1406 128.14 47.2832 127.761 47.3809C127.386 47.4746 126.925 47.5215 126.379 47.5215H123.103ZM124.24 42.541H126.097C126.601 42.541 126.963 42.5078 127.181 42.4414C127.47 42.3555 127.687 42.2129 127.832 42.0137C127.98 41.8145 128.054 41.5645 128.054 41.2637C128.054 40.9785 127.986 40.7285 127.849 40.5137C127.713 40.2949 127.517 40.1465 127.263 40.0684C127.009 39.9863 126.574 39.9453 125.957 39.9453H124.24V42.541ZM124.24 46.5078H126.379C126.746 46.5078 127.004 46.4941 127.152 46.4668C127.414 46.4199 127.632 46.3418 127.808 46.2324C127.984 46.123 128.129 45.9648 128.242 45.7578C128.355 45.5469 128.412 45.3047 128.412 45.0312C128.412 44.7109 128.33 44.4336 128.166 44.1992C128.002 43.9609 127.773 43.7949 127.48 43.7012C127.191 43.6035 126.773 43.5547 126.226 43.5547H124.24V46.5078ZM131.213 38.9316H132.349V42.5996H134.4C135.744 42.5996 136.627 42.8477 137.048 43.3438C137.474 43.8398 137.687 44.4023 137.687 45.0312C137.687 45.6953 137.461 46.2773 137.007 46.7773C136.554 47.2734 135.713 47.5215 134.482 47.5215H131.213V38.9316ZM132.349 46.5547H134.429C135.144 46.5547 135.662 46.4355 135.982 46.1973C136.306 45.9551 136.468 45.5703 136.468 45.043C136.468 44.6836 136.371 44.3828 136.175 44.1406C135.98 43.8984 135.728 43.7441 135.42 43.6777C135.111 43.6113 134.595 43.5781 133.873 43.5781H132.349V46.5547ZM138.718 38.9316H139.855V47.5215H138.718V38.9316ZM140.91 47.5215L144.232 43.0449L141.302 38.9316H142.656L144.214 41.1348C144.539 41.5918 144.769 41.9434 144.906 42.1895C145.097 41.877 145.324 41.5508 145.586 41.2109L147.314 38.9316H148.55L145.533 42.9805L148.785 47.5215H147.379L145.216 44.457C145.095 44.2812 144.97 44.0898 144.841 43.8828C144.65 44.1953 144.513 44.4102 144.431 44.5273L142.275 47.5215H140.91ZM73.8434 52.9316H74.9801V56.6934C75.4996 56.6934 75.8649 56.5938 76.0758 56.3945C76.2867 56.1914 76.5563 55.707 76.8844 54.9414C77.1227 54.3789 77.318 53.9824 77.4703 53.752C77.6266 53.5176 77.8473 53.3223 78.1324 53.166C78.4176 53.0059 78.7321 52.9258 79.0758 52.9258C79.5133 52.9258 79.7438 52.9297 79.7672 52.9375V53.9219C79.7281 53.9219 79.652 53.9199 79.5387 53.916C79.4137 53.9121 79.3375 53.9102 79.3102 53.9102C78.9469 53.9102 78.6774 53.998 78.5016 54.1738C78.3219 54.3496 78.1168 54.7246 77.8864 55.2988C77.5973 56.0254 77.3531 56.4844 77.1539 56.6758C76.9547 56.8633 76.7164 57.0137 76.4391 57.127C76.9938 57.2793 77.5406 57.791 78.0797 58.6621L79.8492 61.5215H78.4371L77.0016 59.1895C76.6071 58.5449 76.277 58.1035 76.0114 57.8652C75.7457 57.623 75.402 57.502 74.9801 57.502V61.5215H73.8434V52.9316ZM80.3356 57.3379C80.3356 55.9121 80.7184 54.7969 81.484 53.9922C82.2496 53.1836 83.2379 52.7793 84.4489 52.7793C85.2418 52.7793 85.9567 52.9688 86.5934 53.3477C87.2301 53.7266 87.7145 54.2559 88.0465 54.9355C88.3824 55.6113 88.5504 56.3789 88.5504 57.2383C88.5504 58.1094 88.3746 58.8887 88.0231 59.5762C87.6715 60.2637 87.1735 60.7852 86.5289 61.1406C85.8844 61.4922 85.1891 61.668 84.443 61.668C83.6344 61.668 82.9117 61.4727 82.275 61.082C81.6383 60.6914 81.1559 60.1582 80.8278 59.4824C80.4996 58.8066 80.3356 58.0918 80.3356 57.3379ZM81.5074 57.3555C81.5074 58.3906 81.7848 59.207 82.3395 59.8047C82.8981 60.3984 83.5973 60.6953 84.4371 60.6953C85.2926 60.6953 85.9957 60.3945 86.5465 59.793C87.1012 59.1914 87.3785 58.3379 87.3785 57.2324C87.3785 56.5332 87.2594 55.9238 87.0211 55.4043C86.7867 54.8809 86.441 54.4766 85.984 54.1914C85.5309 53.9023 85.0211 53.7578 84.4547 53.7578C83.65 53.7578 82.9567 54.0352 82.3746 54.5898C81.7965 55.1406 81.5074 56.0625 81.5074 57.3555ZM90.0563 61.5215V52.9316H91.193V56.459H95.6578V52.9316H96.7946V61.5215H95.6578V57.4727H91.193V61.5215H90.0563ZM104.822 58.5098L105.959 58.7969C105.72 59.7305 105.291 60.4434 104.67 60.9355C104.052 61.4238 103.297 61.668 102.402 61.668C101.476 61.668 100.722 61.4805 100.14 61.1055C99.5621 60.7266 99.1207 60.1797 98.816 59.4648C98.5153 58.75 98.3649 57.9824 98.3649 57.1621C98.3649 56.2676 98.5348 55.4883 98.8746 54.8242C99.2184 54.1562 99.7047 53.6504 100.334 53.3066C100.966 52.959 101.662 52.7852 102.42 52.7852C103.279 52.7852 104.002 53.0039 104.588 53.4414C105.173 53.8789 105.582 54.4941 105.812 55.2871L104.693 55.5508C104.494 54.9258 104.205 54.4707 103.826 54.1855C103.447 53.9004 102.97 53.7578 102.396 53.7578C101.736 53.7578 101.183 53.916 100.738 54.2324C100.297 54.5488 99.986 54.9746 99.8063 55.5098C99.6266 56.041 99.5367 56.5898 99.5367 57.1562C99.5367 57.8867 99.6422 58.5254 99.8531 59.0723C100.068 59.6152 100.4 60.0215 100.849 60.291C101.298 60.5605 101.785 60.6953 102.308 60.6953C102.945 60.6953 103.484 60.5117 103.925 60.1445C104.367 59.7773 104.666 59.2324 104.822 58.5098ZM106.099 52.9316H107.248L110.048 58.1934L112.498 52.9316H113.629L110.406 59.6113C110.004 60.4473 109.673 60.9941 109.416 61.252C109.158 61.5098 108.789 61.6387 108.308 61.6387C108.015 61.6387 107.656 61.5703 107.23 61.4336V60.4609C107.535 60.6367 107.857 60.7246 108.197 60.7246C108.474 60.7246 108.713 60.6367 108.912 60.4609C109.115 60.2812 109.338 59.875 109.58 59.2422L106.099 52.9316ZM114.824 52.9316H120.203V61.5215H119.066V53.9453H115.961V58.3691C115.961 59.2676 115.918 59.9258 115.832 60.3438C115.75 60.7617 115.574 61.0879 115.304 61.3223C115.035 61.5527 114.693 61.668 114.279 61.668C114.029 61.668 113.728 61.6211 113.377 61.5273L113.57 60.5195C113.757 60.5977 113.918 60.6367 114.05 60.6367C114.308 60.6367 114.502 60.541 114.63 60.3496C114.759 60.1543 114.824 59.6973 114.824 58.9785V52.9316ZM122.113 52.9316H123.25V56.5996H125.3C126.257 56.5996 126.951 56.7109 127.38 56.9336C127.81 57.1562 128.119 57.459 128.306 57.8418C128.494 58.2246 128.588 58.6191 128.588 59.0254C128.588 59.6895 128.361 60.2715 127.908 60.7715C127.455 61.2715 126.611 61.5215 125.377 61.5215H122.113V52.9316ZM123.25 60.5547H125.33C126.173 60.5547 126.722 60.4062 126.976 60.1094C127.234 59.8086 127.363 59.4473 127.363 59.0254C127.363 58.6816 127.269 58.3906 127.082 58.1523C126.898 57.9102 126.652 57.7539 126.343 57.6836C126.035 57.6133 125.511 57.5781 124.773 57.5781H123.25V60.5547ZM130.925 61.5215V53.9453H128.095V52.9316H134.904V53.9453H132.062V61.5215H130.925ZM134.734 61.5215L138.033 52.9316H139.257L142.773 61.5215H141.478L140.476 58.9199H136.884L135.941 61.5215H134.734ZM137.213 57.9941H140.125L139.228 55.6152C138.955 54.8926 138.752 54.2988 138.619 53.834C138.509 54.3848 138.355 54.9316 138.156 55.4746L137.213 57.9941ZM143.716 61.5215V52.9316H144.853V56.459H149.318V52.9316H150.455V61.5215H149.318V57.4727H144.853V61.5215H143.716ZM154.539 61.5215V53.9453H151.709V52.9316H158.517V53.9453H155.675V61.5215H154.539ZM158.804 57.3379C158.804 55.9121 159.187 54.7969 159.953 53.9922C160.718 53.1836 161.707 52.7793 162.918 52.7793C163.711 52.7793 164.425 52.9688 165.062 53.3477C165.699 53.7266 166.183 54.2559 166.515 54.9355C166.851 55.6113 167.019 56.3789 167.019 57.2383C167.019 58.1094 166.843 58.8887 166.492 59.5762C166.14 60.2637 165.642 60.7852 164.998 61.1406C164.353 61.4922 163.658 61.668 162.912 61.668C162.103 61.668 161.38 61.4727 160.744 61.082C160.107 60.6914 159.625 60.1582 159.297 59.4824C158.968 58.8066 158.804 58.0918 158.804 57.3379ZM159.976 57.3555C159.976 58.3906 160.254 59.207 160.808 59.8047C161.367 60.3984 162.066 60.6953 162.906 60.6953C163.761 60.6953 164.464 60.3945 165.015 59.793C165.57 59.1914 165.847 58.3379 165.847 57.2324C165.847 56.5332 165.728 55.9238 165.49 55.4043C165.255 54.8809 164.91 54.4766 164.453 54.1914C164 53.9023 163.49 53.7578 162.923 53.7578C162.119 53.7578 161.425 54.0352 160.843 54.5898C160.265 55.1406 159.976 56.0625 159.976 57.3555ZM168.443 61.5215V52.9316H171.666C172.322 52.9316 172.847 53.0195 173.242 53.1953C173.64 53.3672 173.951 53.6348 174.173 53.998C174.4 54.3574 174.513 54.7344 174.513 55.1289C174.513 55.4961 174.414 55.8418 174.214 56.166C174.015 56.4902 173.714 56.752 173.312 56.9512C173.832 57.1035 174.23 57.3633 174.507 57.7305C174.789 58.0977 174.929 58.5312 174.929 59.0312C174.929 59.4336 174.843 59.8086 174.672 60.1562C174.504 60.5 174.295 60.7656 174.045 60.9531C173.795 61.1406 173.48 61.2832 173.101 61.3809C172.726 61.4746 172.265 61.5215 171.718 61.5215H168.443ZM169.58 56.541H171.437C171.941 56.541 172.302 56.5078 172.521 56.4414C172.81 56.3555 173.027 56.2129 173.172 56.0137C173.32 55.8145 173.394 55.5645 173.394 55.2637C173.394 54.9785 173.326 54.7285 173.189 54.5137C173.052 54.2949 172.857 54.1465 172.603 54.0684C172.349 53.9863 171.914 53.9453 171.297 53.9453H169.58V56.541ZM169.58 60.5078H171.718C172.086 60.5078 172.343 60.4941 172.492 60.4668C172.754 60.4199 172.972 60.3418 173.148 60.2324C173.324 60.123 173.468 59.9648 173.582 59.7578C173.695 59.5469 173.752 59.3047 173.752 59.0312C173.752 58.7109 173.67 58.4336 173.505 58.1992C173.341 57.9609 173.113 57.7949 172.82 57.7012C172.531 57.6035 172.113 57.5547 171.566 57.5547H169.58V60.5078Z" fill="white"/>
</svg>
